<svg xmlns="http://www.w3.org/2000/svg" viewBox="0 0 400 400">
<defs><radialGradient id="g" cx="50%" cy="40%" r="60%">
<stop offset="0%" stop-color="#fbccd4"/><stop offset="100%" stop-color="#e6a3b0"/></radialGradient></defs>
<circle cx="200" cy="200" r="150" fill="#e6a3b0"/>
<circle cx="200" cy="200" r="150" fill="none" stroke="#3a1e10" stroke-width="4" opacity="0.35"/>
<circle cx="200" cy="200" r="140" fill="url(#g)"/>
<circle cx="200" cy="200" r="48" fill="#fff" opacity="0.0"/>
<circle cx="200" cy="200" r="48" fill="#e6a3b0"/>
<circle cx="200" cy="200" r="48" fill="none" stroke="#3a1e10" stroke-width="4" opacity="0.35"/>
<rect x="289" y="224" width="14" height="4" rx="2" fill="#ef2e31" transform="rotate(3 296 226)"/><rect x="75" y="188" width="14" height="4" rx="2" fill="#b6e8de" transform="rotate(52 82 190)"/><rect x="293" y="181" width="14" height="4" rx="2" fill="#fff" transform="rotate(159 300 183)"/><rect x="299" y="211" width="14" height="4" rx="2" fill="#ef2e31" transform="rotate(93 306 213)"/><rect x="122" y="144" width="14" height="4" rx="2" fill="#b6e8de" transform="rotate(176 129 146)"/><rect x="133" y="110" width="14" height="4" rx="2" fill="#fff" transform="rotate(123 140 112)"/><rect x="87" y="166" width="14" height="4" rx="2" fill="#ef2e31" transform="rotate(111 94 168)"/><rect x="122" y="167" width="14" height="4" rx="2" fill="#b6e8de" transform="rotate(100 129 169)"/><rect x="249" y="280" width="14" height="4" rx="2" fill="#fff" transform="rotate(77 256 282)"/><rect x="201" y="99" width="14" height="4" rx="2" fill="#ef2e31" transform="rotate(66 208 101)"/><rect x="113" y="189" width="14" height="4" rx="2" fill="#b6e8de" transform="rotate(177 120 191)"/><rect x="248" y="127" width="14" height="4" rx="2" fill="#fff" transform="rotate(39 255 129)"/><rect x="97" y="232" width="14" height="4" rx="2" fill="#ef2e31" transform="rotate(80 104 234)"/><rect x="261" y="172" width="14" height="4" rx="2" fill="#b6e8de" transform="rotate(61 268 174)"/>
</svg>